<?xml version="1.0" standalone="no"?>
<!DOCTYPE svg PUBLIC "-//W3C//DTD SVG 20010904//EN"
 "http://www.w3.org/TR/2001/REC-SVG-20010904/DTD/svg10.dtd">
<svg version="1.0" xmlns="http://www.w3.org/2000/svg"
 width="512.000000pt" height="512.000000pt" viewBox="0 0 512.000000 512.000000"
 preserveAspectRatio="xMidYMid meet">

<g transform="translate(0.000000,512.000000) scale(0.100000,-0.100000)"
fill="#5875da" stroke="none">
<path d="M2406 5110 c-297 -47 -567 -218 -729 -462 -134 -201 -187 -397 -187
-692 l0 -115 -307 -3 c-292 -3 -310 -4 -355 -25 -70 -32 -141 -103 -172 -173
-27 -59 -27 -60 -126 -1496 -55 -791 -100 -1494 -100 -1564 0 -146 15 -216 65
-305 63 -113 170 -202 295 -247 l65 -23 1678 -3 c1836 -3 1739 -5 1865 55 82
39 200 160 239 243 41 88 53 150 53 285 0 144 -196 2969 -209 3013 -26 87
-104 176 -190 216 -43 20 -64 21 -352 24 l-306 3 -6 172 c-6 188 -21 283 -69
413 -114 316 -402 575 -733 660 -112 28 -315 40 -419 24z m343 -226 c152 -35
279 -103 393 -212 91 -87 162 -188 206 -293 47 -114 62 -207 62 -384 l0 -155
-850 0 -850 0 0 155 c0 103 5 182 16 233 83 405 463 699 874 676 47 -3 114
-12 149 -20z m-1259 -1524 c0 -290 4 -321 51 -354 30 -21 88 -21 118 0 47 33
51 64 51 354 l0 270 850 0 850 0 0 -270 c0 -290 4 -321 51 -354 30 -21 88 -21
118 0 47 33 51 64 51 354 l0 271 284 -3 c271 -3 286 -4 313 -24 15 -11 33 -32
40 -46 16 -32 205 -2723 207 -2943 1 -156 0 -161 -27 -217 -34 -68 -108 -139
-175 -165 -45 -17 -121 -18 -1677 -21 -1670 -3 -1707 -2 -1779 35 -48 25 -116
95 -144 148 -26 49 -27 54 -26 220 2 192 188 2899 203 2936 11 29 38 54 71 68
14 5 143 10 298 10 l272 1 0 -270z"/>
<path d="M1573 2110 c-89 -54 -104 -174 -30 -247 77 -78 216 -53 257 47 17 41
8 121 -18 157 -43 61 -145 82 -209 43z"/>
<path d="M3392 2113 c-46 -22 -74 -67 -80 -124 -8 -83 36 -147 116 -168 113
-30 222 78 192 190 -27 100 -134 149 -228 102z"/>
<path d="M2389 1481 c-274 -51 -511 -193 -674 -405 -49 -65 -57 -81 -57 -117
1 -31 8 -49 28 -70 60 -63 120 -46 197 56 128 169 334 291 547 325 302 47 622
-81 807 -325 77 -102 142 -120 198 -53 52 61 28 126 -96 261 -127 139 -311
251 -499 303 -79 21 -121 26 -250 29 -85 2 -176 0 -201 -4z"/>
</g>
</svg>
