<?xml version="1.0" encoding="utf-8"?>
<!-- Generator: Adobe Illustrator 19.2.0, SVG Export Plug-In . SVG Version: 6.00 Build 0)  -->
<svg version="1.1" id="Group_1257" xmlns="http://www.w3.org/2000/svg" xmlns:xlink="http://www.w3.org/1999/xlink" x="0px" y="0px"
	 viewBox="0 0 244.5 61.4" style="enable-background:new 0 0 244.5 61.4;" xml:space="preserve">
<style type="text/css">
	.st0{fill:#CDA870;}
</style>
<g>
	<g id="Group_1239">
		<g id="Group_1234">
			<circle id="Ellipse_53" class="st0" cx="39.1" cy="36" r="1.1"/>
			<circle id="Ellipse_54" class="st0" cx="43" cy="36" r="1.1"/>
		</g>
		<path id="Path_1743" class="st0" d="M66.3,46.5c-1.1,5.4-4.4,8.2-7.9,10.6c-6.6,4.2-17,4.2-17.4,4.2H40c-1.1,0-11-0.1-17.3-4.2
			c-3.6-2.5-6.9-5.3-8-10.9l0.9-0.5c1,5.5,4.1,8.2,7.6,10.6c6.3,4.1,16.7,4,16.9,4h0.8c0.1,0,10.5,0,16.9-4c3.4-2.4,6.6-5,7.6-10.4
			C65.4,45.9,66,46.4,66.3,46.5z M65.3,20.2C65.3,20.2,65.3,20.2,65.3,20.2c-0.3-0.1-0.4-0.3-0.4-0.5C64.7,10.9,55.2,1,42.7,1h-4.3
			c-12.5,0-22,9.9-22.2,18.8c-0.2,0.5-0.5,1-1,1.3l0-1.7C15.6,10.2,25.5,0,38.4,0h4.3c12.5,0,22.2,9.6,23.1,18.7L65.3,20.2z"/>
		<g id="Group_1235">
			<path id="Path_1745" class="st0" d="M40.7,55.7c-3.7,0-7.5-0.4-11.1-1.2c-1.1-0.2-2.1-0.6-3-1c-4.6-2.3-7.3-6.1-7.5-10.4
				c-0.1-3.2,1-6.3,3.2-8.7c1.8-2,2.3-4.9,1.3-7.4c-0.5-1.3-0.8-2.8-0.7-4.2c0.4-5.2,4.8-9.1,9.9-9h15.3c5.2-0.1,9.5,3.9,10,9
				c0.1,1.4-0.1,2.9-0.7,4.2c-1.1,2.5-0.6,5.4,1.3,7.4c2.2,2.3,3.4,5.5,3.2,8.7c-0.2,5.3-3.9,9.8-9.1,11.1l0,0
				C48.9,55.2,44.8,55.8,40.7,55.7z M32.9,14.8c-4.7-0.1-8.6,3.5-9,8.1c-0.1,1.3,0.1,2.6,0.6,3.8c1.2,2.9,0.6,6.2-1.5,8.5
				c-2,2.1-3.1,5-3,8c0.2,4,2.7,7.4,7,9.6c0.9,0.4,1.8,0.8,2.8,1c7.6,1.6,15.4,1.5,22.9-0.3l0,0c4.7-1.2,8.1-5.3,8.3-10.2
				c0.1-2.9-0.9-5.8-3-8c-2.1-2.3-2.7-5.6-1.5-8.5c1.8-4.5-0.4-9.5-4.9-11.3c-1.1-0.4-2.3-0.6-3.5-0.6
				C48.2,14.8,32.9,14.8,32.9,14.8z"/>
		</g>
		<g id="Group_1236">
			<path id="Path_1746" class="st0" d="M9.5,47.9c-5.3,0-9.5-4.3-9.5-9.5l0-1.8l0-9.1c0-1.3,1-2.3,2.3-2.3c0,0,0,0,0,0l0,0
				c1.3,0,2.3,1,2.3,2.3c0,0,0,0,0,0l0,9.1c0,0.3-0.2,0.5-0.5,0.5l0,0c-0.3,0-0.5-0.2-0.5-0.5l0-9.1c0-0.3-0.1-0.7-0.4-0.9
				c-0.2-0.2-0.6-0.4-0.9-0.4l0,0c-0.7,0-1.3,0.6-1.3,1.3l0,9.1l0,1.8c0,4.7,3.8,8.5,8.5,8.5s8.5-3.8,8.5-8.5c0,0,0-0.1,0-0.1l0-16
				c0-0.3-0.1-0.7-0.4-0.9c-0.2-0.2-0.6-0.4-0.9-0.4l0,0c-0.7,0-1.3,0.6-1.3,1.3l0,14.3c0,0.3-0.2,0.5-0.5,0.5l0,0
				c-0.3,0-0.5-0.2-0.5-0.5l0-14.3c0-1.3,1-2.3,2.3-2.3c0,0,0,0,0,0l0,0c1.3,0,2.3,1,2.3,2.3c0,0,0,0,0,0l0,16.2c0,0,0,0.1,0,0.1
				C19,43.7,14.7,47.9,9.5,47.9z"/>
			<path id="Path_1747" class="st0" d="M14.9,37.1c-0.3,0-0.5-0.2-0.5-0.5l0-16.5c0-0.7-0.6-1.3-1.3-1.3l0,0c-0.7,0-1.3,0.6-1.3,1.3
				l0,16.5c0,0.3-0.2,0.5-0.5,0.5c-0.3,0-0.5-0.2-0.5-0.5l0-16.5c0-1.3,1-2.3,2.3-2.3c0,0,0,0,0,0l0,0c1.3,0,2.3,1,2.3,2.3l0,16.5
				C15.4,36.8,15.2,37.1,14.9,37.1z"/>
			<path id="Path_1748" class="st0" d="M11.4,37.1c-0.3,0-0.5-0.2-0.5-0.5l0-17.8c0-0.3-0.1-0.7-0.4-0.9c-0.2-0.2-0.6-0.4-0.9-0.4
				l0,0c-0.7,0-1.3,0.6-1.3,1.3l0,17.8c0,0.3-0.2,0.5-0.5,0.5c-0.3,0-0.5-0.2-0.5-0.5c0,0,0,0,0,0l0-17.8c0-1.3,1-2.3,2.3-2.3
				c0,0,0,0,0,0l0,0c1.3,0,2.3,1,2.3,2.3c0,0,0,0,0,0l0,17.8C11.8,36.8,11.6,37.1,11.4,37.1C11.4,37.1,11.4,37.1,11.4,37.1z"/>
			<path id="Path_1749" class="st0" d="M7.7,37.1c-0.3,0-0.5-0.2-0.5-0.5l0-16.7c0-0.3-0.1-0.7-0.4-0.9c-0.2-0.2-0.6-0.4-0.9-0.4
				l0,0c-0.7,0-1.3,0.6-1.3,1.3l0,16.7c0,0.3-0.2,0.5-0.5,0.5c-0.3,0-0.5-0.2-0.5-0.5c0,0,0,0,0,0l0-16.7c0-1.3,1-2.3,2.3-2.3l0,0
				c1.3,0,2.3,1,2.3,2.3c0,0,0,0,0,0l0,16.7C8.2,36.8,8,37.1,7.7,37.1C7.8,37.1,7.7,37.1,7.7,37.1z"/>
		</g>
		<g id="Group_1237">
			<path id="Path_1750" class="st0" d="M71.3,47.9c-5.2,0-9.4-4.2-9.5-9.4c0,0,0-0.1,0-0.1l0-16.2c0-1.3,1-2.3,2.3-2.3c0,0,0,0,0,0
				l0,0c1.3,0,2.3,1,2.3,2.3c0,0,0,0,0,0l0,14.3c0,0.3-0.2,0.5-0.5,0.5l0,0c-0.3,0-0.5-0.2-0.5-0.5l0-14.3c0-0.3-0.1-0.7-0.4-0.9
				c-0.2-0.2-0.6-0.4-0.9-0.4l0,0c-0.7,0-1.3,0.6-1.3,1.3l0,16.1c0,0,0,0.1,0,0.1c0,4.7,3.8,8.5,8.5,8.5s8.5-3.8,8.5-8.5l0-1.8
				l0-9.1c0-0.3-0.1-0.7-0.4-0.9c-0.2-0.2-0.6-0.4-0.9-0.4l0,0c-0.7,0-1.3,0.6-1.3,1.3v0l0,9.1c0,0.3-0.2,0.5-0.5,0.5l0,0
				c-0.3,0-0.5-0.2-0.5-0.5l0-9.1c0-1.3,1-2.3,2.3-2.3c0,0,0,0,0,0l0,0c1.3,0,2.3,1,2.3,2.3c0,0,0,0,0,0l0,9.1l0,1.8
				C80.8,43.7,76.5,47.9,71.3,47.9z"/>
			<path id="Path_1751" class="st0" d="M65.8,37.1L65.8,37.1c-0.3,0-0.5-0.2-0.5-0.5l0-16.5c0-1.3,1-2.3,2.3-2.3l0,0l0,0
				c1.3,0,2.3,1,2.3,2.3c0,0,0,0,0,0l0,16.5c0,0.3-0.2,0.5-0.5,0.5l0,0c-0.3,0-0.5-0.2-0.5-0.5l0-16.5c0-0.3-0.1-0.7-0.4-0.9
				c-0.2-0.2-0.6-0.4-0.9-0.4l0,0c-0.7,0-1.3,0.6-1.3,1.3l0,16.5C66.3,36.9,66.1,37.1,65.8,37.1z"/>
			<path id="Path_1752" class="st0" d="M69.4,37.1L69.4,37.1c-0.3,0-0.5-0.2-0.5-0.5l0-17.8c0-1.3,1-2.3,2.3-2.3c0,0,0,0,0,0l0,0
				c1.3,0,2.3,1,2.3,2.3c0,0,0,0,0,0l0,17.8c0,0.3-0.2,0.5-0.5,0.5l0,0c-0.3,0-0.5-0.2-0.5-0.5l0-17.8c0-0.3-0.1-0.7-0.4-0.9
				c-0.2-0.2-0.6-0.4-0.9-0.4l0,0c-0.7,0-1.3,0.6-1.3,1.3v0l0,17.8C69.9,36.9,69.7,37.1,69.4,37.1z"/>
			<path id="Path_1753" class="st0" d="M73.1,37.1L73.1,37.1c-0.3,0-0.5-0.2-0.5-0.5l0-16.7c0-1.3,1-2.3,2.3-2.3c0,0,0,0,0,0l0,0
				c1.3,0,2.3,1,2.3,2.3c0,0,0,0,0,0l0,16.7c0,0.3-0.2,0.5-0.5,0.5l0,0c-0.3,0-0.5-0.2-0.5-0.5l0-16.7c0-0.7-0.6-1.3-1.3-1.3l0,0
				c-0.7,0-1.3,0.6-1.3,1.3v0l0,16.7C73.5,36.9,73.3,37.1,73.1,37.1z"/>
		</g>
		<g id="Group_1238">
			<path id="Path_1754" class="st0" d="M34.3,28.6L34.3,28.6c1.2,0,2.1-0.9,2.1-2.1v-0.1c0-1.2-0.9-2.1-2.1-2.1l0,0
				c-1.2,0-2.1,0.9-2.1,2.1v0.1C32.2,27.6,33.1,28.6,34.3,28.6z"/>
			<path id="Path_1755" class="st0" d="M48,28.6L48,28.6c-1.2,0-2.1-0.9-2.1-2.1v-0.1c0-1.2,0.9-2.1,2.1-2.1l0,0
				c1.2,0,2.1,0.9,2.1,2.1v0.1C50.1,27.6,49.1,28.6,48,28.6z"/>
			<path id="Path_1756" class="st0" d="M37.2,22.2c-0.1,0-0.2-0.1-0.3-0.1c-0.7-0.7-1.6-1.1-2.6-1.1c-1,0-1.9,0.4-2.6,1.1
				c-0.2,0.2-0.5,0.3-0.7,0.1c-0.2-0.2-0.3-0.5-0.1-0.7c0,0,0.1-0.1,0.1-0.1c0.9-0.9,2.1-1.3,3.3-1.3c1.2,0,2.4,0.5,3.3,1.3
				c0.2,0.2,0.2,0.5,0,0.7c0,0,0,0,0,0C37.5,22.1,37.4,22.2,37.2,22.2z"/>
			<path id="Path_1757" class="st0" d="M45,22.2c-0.1,0-0.3-0.1-0.4-0.1c-0.2-0.2-0.2-0.5,0-0.7c0.9-0.9,2.1-1.3,3.3-1.3
				c1.2,0,2.4,0.5,3.3,1.3c0.2,0.2,0.1,0.5-0.1,0.7c-0.2,0.1-0.4,0.1-0.6,0C49.9,21.4,48.9,21,48,21c-1,0-1.9,0.4-2.6,1.1
				C45.3,22.1,45.2,22.2,45,22.2z"/>
		</g>
		<path class="st0" d="M40.5,48c-4,0-5.9-1.6-6-1.7c-0.3-0.2-0.3-0.6-0.1-0.9c0.2-0.3,0.6-0.3,0.9-0.1c0.1,0,1.7,1.4,5.3,1.4
			c3.5,0,5.2-1.4,5.3-1.4c0.3-0.2,0.6-0.2,0.9,0.1c0.2,0.3,0.2,0.6-0.1,0.9C46.4,46.4,44.5,48,40.5,48z"/>
	</g>
	<g id="Group_1245">
		<g id="Group_1240">
			<path id="Path_1758" class="st0" d="M203.5,14.1c-0.8,0-1.5,0.3-2.1,0.7l-0.3-0.4c1.2-0.5,2.5-0.7,3.8-0.7l15.3,0.1
				c1.2,0,2.5,0.2,3.6,0.7l-0.6,0.8c-1-0.3-2-0.5-3-0.5L205,14.7L203.5,14.1z M191.9,43c0.2,3.9,2.7,7.4,6.9,9.5
				c0.9,0.4,1.8,0.8,2.8,1c7.5,1.7,15.4,1.6,22.9-0.1l0,0c4.7-1.1,8.2-5.2,8.4-10.1v-0.1c0,0,0.9-0.5,1-0.6c0,0.2,0,0.5,0,0.7
				c-0.3,5.3-4,9.8-9.2,11l0,0c-4,1-8.1,1.4-12.2,1.4c-3.7,0-7.5-0.4-11.1-1.2c-1.1-0.2-2.1-0.6-3-1.1c-4.6-2.3-7.3-6.2-7.4-10.5
				c0-0.2,0-0.4,0-0.6L191.9,43z"/>
		</g>
		<g id="Group_1241">
			<circle id="Ellipse_55" class="st0" cx="210.5" cy="36" r="1.1"/>
			<circle id="Ellipse_56" class="st0" cx="214.4" cy="36" r="1.1"/>
		</g>
		<path id="Path_1759" class="st0" d="M212,61.3c-1.1,0-11-0.1-17.3-4.2c-5.3-3.7-9.9-8-7.9-20.7c-0.2-0.1-0.4-0.2-0.6-0.2
			c-1.2-0.5-2.7-1-3.1-2.3l-2.2-4.8c-0.8-2.3-0.4-4.8,1.1-6.8c1.2-1.8,3.2-2.9,5.3-3.1C187.7,10.1,197.5,0,210.3,0h4.3
			c12.8,0,22.6,10.1,23.2,19.3c2.1,0.4,4,1.6,5.1,3.4c1.4,1.8,1.9,4.2,1.2,6.4L242,34c-0.5,1.3-1.9,1.8-3.1,2.3
			c-0.2,0.1-0.4,0.2-0.6,0.2c2,12.7-2.6,17-7.9,20.7c-6.6,4.2-17,4.2-17.4,4.2L212,61.3L212,61.3z M210.3,1
			c-12.5,0-22,9.9-22.2,18.8c0,0.3-0.2,0.5-0.5,0.5c-2,0-3.9,1-5,2.7c-1.2,1.7-1.6,3.9-0.9,5.9l2.2,4.8c0.4,1,1.5,1.4,2.6,1.8
			c0.4,0.1,0.7,0.2,1,0.4c0.2,0.1,0.3,0.3,0.3,0.5c-2,12.4,2.4,16.6,7.4,20.1c6.3,4.1,16.8,4,16.9,4h0.8c0.1,0,10.6,0,16.9-4
			c5.1-3.5,9.4-7.6,7.4-20.1c0-0.2,0.1-0.4,0.3-0.5c0.3-0.1,0.7-0.3,1-0.4c1.1-0.4,2.2-0.8,2.6-1.7l2.3-4.9c0.5-1.9,0.1-3.9-1.1-5.5
			c-1.1-1.7-2.8-2.8-4.8-3c-0.3,0-0.5-0.2-0.5-0.5c0,0,0,0,0,0C236.7,10.9,227.1,1,214.7,1L210.3,1L210.3,1z"/>
		<path class="st0" d="M212.4,48c-4,0-5.9-1.6-6-1.7c-0.3-0.2-0.3-0.6-0.1-0.9c0.2-0.3,0.6-0.3,0.9-0.1c0.1,0,1.7,1.4,5.3,1.4
			c3.5,0,5.2-1.4,5.3-1.4c0.3-0.2,0.6-0.2,0.9,0.1c0.2,0.3,0.2,0.6-0.1,0.9C218.3,46.4,216.4,48,212.4,48z"/>
		<g id="Group_1244">
			<g id="Group_1242">
				<path id="Path_1761" class="st0" d="M196.5,44.2c-1.1,0-2.2-0.2-3.3-0.6c-4.9-1.8-7.5-7.3-5.7-12.2l0.7-1.7l3.1-8.5
					c0.4-1.2,1.7-1.8,2.9-1.4c1.2,0.4,1.8,1.7,1.4,2.9c0,0,0,0,0,0.1l-3.1,8.5c-0.1,0.3-0.4,0.4-0.6,0.3c-0.3-0.1-0.4-0.4-0.3-0.6
					l3.1-8.5c0.2-0.7-0.1-1.4-0.8-1.7c-0.7-0.2-1.4,0.1-1.7,0.8l0,0l-3.8,10.2c-1.6,4.4,0.8,9.3,5.2,10.9c4.4,1.5,9.2-0.7,10.8-5.1
					l0.1-0.1l5.5-15.1c0.1-0.3,0.1-0.7,0-1c-0.1-0.3-0.4-0.6-0.7-0.7c-0.3-0.1-0.7-0.1-1,0c-0.3,0.1-0.6,0.4-0.7,0.7L202.7,35
					c-0.1,0.3-0.4,0.4-0.6,0.3c-0.3-0.1-0.4-0.4-0.3-0.6l4.9-13.5c0.5-1.2,1.8-1.7,3-1.2c1.1,0.5,1.6,1.7,1.3,2.8L205.5,38
					c0,0,0,0.1-0.1,0.1c-0.9,2.3-2.6,4.2-4.9,5.2C199.3,43.9,197.9,44.2,196.5,44.2z"/>
				<path id="Path_1762" class="st0" d="M202.3,35.3c-0.1,0-0.1,0-0.2,0c-0.3-0.1-0.4-0.4-0.3-0.6l5.6-15.5c0.2-0.7-0.1-1.4-0.8-1.7
					s-1.4,0.1-1.7,0.8l-5.6,15.5c-0.1,0.3-0.4,0.4-0.6,0.3c-0.3-0.1-0.4-0.4-0.3-0.6l5.6-15.5c0.4-1.2,1.7-1.8,2.9-1.4
					s1.8,1.7,1.4,2.9c0,0,0,0.1,0,0.1L202.7,35C202.6,35.2,202.5,35.3,202.3,35.3z"/>
				<path id="Path_1763" class="st0" d="M198.9,34.1c-0.1,0-0.1,0-0.2,0c-0.3-0.1-0.4-0.4-0.3-0.6l6.1-16.8c0.1-0.3,0.1-0.7,0-1
					c-0.1-0.3-0.4-0.6-0.7-0.7c-0.3-0.1-0.7-0.1-1,0c-0.3,0.1-0.6,0.4-0.7,0.7L196,32.5c-0.1,0.3-0.4,0.4-0.6,0.3
					c-0.3-0.1-0.4-0.4-0.3-0.6l6.1-16.7c0.5-1.2,1.8-1.7,3-1.2c1.1,0.5,1.6,1.7,1.3,2.8l-6.1,16.8C199.3,34,199.1,34.1,198.9,34.1z"
					/>
				<path id="Path_1764" class="st0" d="M195.5,32.8c-0.1,0-0.1,0-0.2,0c-0.3-0.1-0.4-0.4-0.3-0.6l5.7-15.7c0.2-0.7-0.1-1.4-0.8-1.7
					c-0.7-0.2-1.4,0.1-1.7,0.8l-5.7,15.7c-0.1,0.3-0.4,0.4-0.6,0.3c-0.3-0.1-0.4-0.4-0.3-0.6l5.7-15.7c0.4-1.2,1.7-1.8,2.9-1.4
					c1.2,0.4,1.8,1.7,1.4,2.9c0,0,0,0,0,0.1l-5.7,15.7C195.9,32.7,195.7,32.9,195.5,32.8z"/>
			</g>
			<g id="Group_1243">
				<path id="Path_1765" class="st0" d="M228.4,44.2c-1.4,0-2.8-0.3-4-0.9c-2.2-1-4-2.9-4.9-5.2c0,0,0-0.1-0.1-0.1l-5.5-15.2
					c-0.4-1.2,0.2-2.5,1.4-2.9c1.2-0.4,2.5,0.2,2.9,1.4l4.9,13.5c0.1,0.3,0,0.5-0.3,0.6c0,0,0,0,0,0c-0.2,0.1-0.5,0-0.6-0.3
					c0,0,0,0,0,0l-4.9-13.5c-0.1-0.3-0.4-0.6-0.7-0.7c-0.3-0.1-0.7-0.2-1,0c-0.7,0.2-1,1-0.8,1.7c0,0,0,0,0,0l5.5,15.1
					c0,0,0.1,0.1,0.1,0.1c1.6,4.4,6.5,6.7,10.9,5.1c0,0,0,0,0,0c4.4-1.6,6.7-6.5,5.1-10.9l-0.6-1.7l-3.1-8.5
					c-0.1-0.3-0.4-0.6-0.7-0.7c-0.3-0.1-0.7-0.2-1,0c-0.7,0.2-1,1-0.8,1.7c0,0,0,0,0,0l3.1,8.5c0.1,0.3,0,0.5-0.3,0.6
					c-0.3,0.1-0.5,0-0.6-0.3l-3.1-8.5c-0.4-1.2,0.2-2.5,1.4-2.9c1.2-0.4,2.5,0.2,2.9,1.4l3.8,10.2c1.8,4.9-0.7,10.4-5.7,12.2
					C230.6,44,229.5,44.2,228.4,44.2z"/>
				<path id="Path_1766" class="st0" d="M222.6,35.3c-0.2,0-0.4-0.1-0.5-0.3l-5.6-15.5c-0.5-1.2,0.1-2.5,1.3-3s2.5,0.1,3,1.3
					c0,0,0,0.1,0,0.1l5.6,15.5c0.1,0.3,0,0.5-0.3,0.6c0,0,0,0,0,0c-0.2,0.1-0.5,0-0.6-0.3c0,0,0,0,0,0l-5.6-15.5
					c-0.2-0.7-1-1-1.7-0.8s-1,1-0.8,1.7l0,0l5.6,15.5c0.1,0.3,0,0.5-0.3,0.6c0,0,0,0,0,0C222.8,35.3,222.7,35.3,222.6,35.3z"/>
				<path id="Path_1767" class="st0" d="M226,34.1c-0.2,0-0.4-0.1-0.5-0.3L219.5,17c-0.4-1.2,0.3-2.5,1.5-2.9
					c1.1-0.3,2.3,0.2,2.8,1.3l6.1,16.7c0.1,0.3,0,0.5-0.3,0.6c0,0,0,0,0,0c-0.2,0.1-0.5,0-0.6-0.3c0,0,0,0,0,0l-6.1-16.7
					c-0.1-0.3-0.4-0.6-0.7-0.7c-0.3-0.1-0.7-0.2-1,0c-0.3,0.1-0.6,0.4-0.7,0.7c-0.1,0.3-0.2,0.7,0,1l6.1,16.8c0.1,0.3,0,0.5-0.3,0.6
					c0,0,0,0,0,0C226.1,34.1,226.1,34.1,226,34.1z"/>
				<path id="Path_1768" class="st0" d="M229.4,32.8c-0.2,0-0.4-0.1-0.5-0.3l-5.7-15.7c-0.5-1.2,0.1-2.5,1.3-3s2.5,0.1,3,1.3
					c0,0,0,0.1,0,0.1l5.7,15.7c0.1,0.3,0,0.5-0.3,0.6c0,0,0,0,0,0c-0.2,0.1-0.5,0-0.6-0.3c0,0,0,0,0,0l-5.7-15.7
					c-0.2-0.7-1-1-1.7-0.8c-0.7,0.2-1,1-0.8,1.7l5.7,15.7c0.1,0.3,0,0.5-0.3,0.6c0,0,0,0,0,0C229.5,32.8,229.5,32.9,229.4,32.8z"/>
			</g>
		</g>
	</g>
	<g id="Group_1251" transform="translate(3.59)">
		<g id="Group_1249">
			<g id="Group_1246">
				<circle id="Ellipse_57" class="st0" cx="124.5" cy="36" r="1.1"/>
				<circle id="Ellipse_58" class="st0" cx="128.4" cy="36" r="1.1"/>
			</g>
			<path id="Path_1769" class="st0" d="M141.6,57.5c0.7-0.3,1.4-0.7,2.1-1.2c5.1-3.5,9.4-7.6,7.4-20.1c0-0.2,0.1-0.4,0.3-0.5
				c1.3-0.6,2.3-1.6,2.8-2.9l1.4-4c0.6-1.7,0.5-3.6-0.4-5.2c-0.8-1.6-2.3-2.8-4.1-3.3c-0.2-0.1-0.4-0.2-0.4-0.5
				C150.6,10.9,141,1,128.6,1h-4.3c-12.5,0-22,9.9-22.2,18.8c0,0.2-0.1,0.4-0.4,0.5c-1.8,0.5-3.2,1.7-4.1,3.3
				c-0.8,1.6-1,3.5-0.4,5.2l1.4,4c0.5,1.3,1.5,2.4,2.8,2.9c0.2,0.1,0.3,0.3,0.3,0.5c-2,12.4,2.4,16.6,7.4,20.1
				c1.9,1.2,4,2.1,6.2,2.6c0,0.4,0.1,0.7,0.2,1.1c-2.5-0.6-4.8-1.6-7-2.9c-5.3-3.7-9.9-8-7.9-20.7c-1.4-0.7-2.4-1.9-2.9-3.3l-1.4-4
				c-0.7-2-0.6-4.1,0.4-6c0.9-1.8,2.5-3.1,4.3-3.7C101.5,10.2,111.4,0,124.2,0h4.3c12.9,0,22.7,10.2,23.2,19.4
				c1.9,0.6,3.4,2,4.3,3.7c1,1.9,1.1,4,0.4,6l-1.4,4c-0.5,1.5-1.6,2.6-2.9,3.3c2,12.7-2.6,17-7.9,20.7c-1.4,0.9-2.8,1.5-4.3,2.1
				C139.9,59.2,141.4,57.7,141.6,57.5z"/>
			<g id="Group_1247">
				<path id="Path_1770" class="st0" d="M113.7,54.1c-0.4-0.2-0.9-0.3-1.3-0.5c-4.6-2.3-7.3-6.1-7.5-10.4c-0.1-3.2,1-6.3,3.2-8.7
					c1.8-2,2.3-4.9,1.3-7.4c-0.5-1.3-0.8-2.8-0.7-4.2c0.4-5.2,4.8-9.1,9.9-9h15.3c5.2-0.1,9.5,3.9,9.9,9c0.1,1.4-0.1,2.9-0.7,4.2
					c-1.1,2.5-0.6,5.4,1.3,7.4c2.2,2.3,3.4,5.5,3.2,8.7c-0.2,3.5-1.8,6.7-4.5,8.9c0-0.3-0.1-1.2-0.1-1.2c2.2-2,3.4-4.7,3.6-7.7
					c0.1-2.9-0.9-5.8-3-8c-2.1-2.3-2.7-5.6-1.5-8.5c1.8-4.5-0.4-9.5-4.9-11.3c-1.1-0.4-2.3-0.6-3.5-0.6h-15.3
					c-4.7-0.1-8.6,3.5-9,8.1c-0.1,1.3,0.1,2.6,0.6,3.8c1.2,2.9,0.6,6.2-1.5,8.5c-2,2.1-3.1,5-3,8c0.2,3.7,2.3,6.9,6,9
					c0.3,0.2,0.6,0.3,1,0.5L113.7,54.1z"/>
			</g>
			<g id="Group_1248">
				<path id="Path_1771" class="st0" d="M119.6,28.6L119.6,28.6c1.2,0,2.1-0.9,2.1-2.1v-0.1c0-1.2-0.9-2.1-2.1-2.1l0,0
					c-1.2,0-2.1,0.9-2.1,2.1v0.1C117.5,27.6,118.4,28.6,119.6,28.6z"/>
				<path id="Path_1772" class="st0" d="M133.3,28.6L133.3,28.6c-1.2,0-2.1-0.9-2.1-2.1c0,0,0,0,0,0v-0.1c0-1.2,0.9-2.1,2.1-2.1l0,0
					l0,0c1.2,0,2.1,0.9,2.1,2.1c0,0,0,0,0,0v0.1C135.4,27.6,134.4,28.6,133.3,28.6L133.3,28.6z"/>
				<path id="Path_1773" class="st0" d="M122.5,22.2c-0.1,0-0.2-0.1-0.3-0.1c-0.7-0.7-1.6-1.1-2.6-1.1c-1,0-1.9,0.4-2.6,1.1
					c-0.2,0.2-0.5,0.3-0.7,0.1c-0.2-0.2-0.3-0.5-0.1-0.7c0,0,0.1-0.1,0.1-0.1c0.9-0.9,2.1-1.3,3.3-1.3c1.2,0,2.4,0.5,3.3,1.3
					c0.2,0.2,0.2,0.5,0,0.7c0,0,0,0,0,0C122.8,22.1,122.7,22.2,122.5,22.2z"/>
				<path id="Path_1774" class="st0" d="M136.2,22.2c-0.1,0-0.2-0.1-0.3-0.1c-0.7-0.7-1.6-1.1-2.6-1.1c-1,0-1.9,0.4-2.6,1.1
					c-0.2,0.2-0.5,0.1-0.7-0.1c-0.1-0.2-0.1-0.4,0-0.6c0.9-0.9,2.1-1.3,3.3-1.3c1.2,0,2.4,0.5,3.3,1.3c0.2,0.2,0.2,0.5,0,0.7
					c0,0,0,0,0,0C136.5,22.1,136.4,22.2,136.2,22.2z"/>
			</g>
		</g>
		<g id="Group_1250">
			<path id="Path_1775" class="st0" d="M133.9,61.4L133.9,61.4l-16.2,0c-1.3,0-2.3-1-2.3-2.3c0-1.3,1-2.3,2.3-2.3l0,0l14.3,0
				c0.3,0,0.5,0.2,0.5,0.5c0,0.3-0.2,0.5-0.5,0.5c0,0,0,0,0,0l0,0l-14.3,0l0,0c-0.7,0-1.3,0.6-1.3,1.3c0,0,0,0,0,0
				c0,0.7,0.6,1.3,1.3,1.3l16.1,0c0,0,0.1,0,0.1,0c4.7,0,8.5-3.8,8.5-8.5s-3.8-8.5-8.5-8.5l-1.8,0l-9.1,0c-0.7,0-1.3,0.6-1.3,1.3
				c0,0.7,0.6,1.3,1.3,1.3l9.1,0c0.3,0,0.5,0.2,0.5,0.5c0,0.3-0.2,0.5-0.5,0.5c0,0,0,0,0,0l0,0l-9.1,0c-1.3,0.1-2.4-0.9-2.4-2.1
				c-0.1-1.3,0.9-2.4,2.1-2.4c0.1,0,0.2,0,0.3,0l9.1,0l1.8,0c5.3,0,9.5,4.2,9.6,9.4c0,5.3-4.2,9.5-9.4,9.6l0,0
				C134,61.4,133.9,61.4,133.9,61.4z"/>
			<path id="Path_1776" class="st0" d="M132,57.8L132,57.8l-16.5,0c-1.3,0-2.3-1-2.3-2.3s1-2.3,2.3-2.3c0,0,0,0,0,0H132
				c0.3,0,0.5,0.2,0.5,0.5c0,0.3-0.2,0.5-0.5,0.5c0,0,0,0,0,0h-16.5c-0.7,0-1.3,0.6-1.3,1.3c0,0.7,0.6,1.3,1.3,1.3c0,0,0,0,0,0
				l16.5,0c0.3,0,0.5,0.2,0.5,0.5S132.3,57.8,132,57.8z"/>
			<path id="Path_1777" class="st0" d="M132,54.2L132,54.2l-17.8,0c-1.3,0.1-2.4-0.9-2.4-2.1c-0.1-1.3,0.9-2.4,2.1-2.4
				c0.1,0,0.2,0,0.3,0l17.8,0c0.3,0,0.5,0.2,0.5,0.5c0,0.3-0.2,0.5-0.5,0.5c0,0,0,0,0,0l0,0l-17.8,0c-0.7,0-1.3,0.6-1.3,1.3
				c0,0.7,0.6,1.3,1.3,1.3l17.8,0c0.3,0,0.5,0.2,0.5,0.5C132.5,54,132.3,54.2,132,54.2z"/>
			<path id="Path_1778" class="st0" d="M132,50.6L132,50.6l-16.7,0c-1.3,0-2.3-1-2.3-2.3s1-2.3,2.3-2.3c0,0,0,0,0,0H132
				c0.3,0,0.5,0.2,0.5,0.5c0,0.3-0.2,0.5-0.5,0.5c0,0,0,0,0,0h-16.7c-0.7,0-1.3,0.6-1.3,1.3c0,0.3,0.1,0.7,0.4,0.9
				c0.2,0.2,0.6,0.4,0.9,0.4l16.7,0c0.3,0,0.5,0.2,0.5,0.5S132.3,50.6,132,50.6z"/>
		</g>
	</g>
</g>
</svg>
