<svg width="560" height="520" viewBox="0 0 560 520" fill="black" xmlns="http://www.w3.org/2000/svg">
<g clip-path="url(#clip0_58_2)">
<path d="M270.299 1.25619C304.369 -2.24381 339.199 0.066186 372.119 9.81619C441.749 29.6562 501.869 80.0962 533.629 145.136C549.329 176.656 558.47 211.465 560.079 246.646C559.85 254.004 561.18 261.346 560.209 268.686C559.989 283.174 558.039 297.567 555.369 311.794C553.438 309.984 551.47 308.226 549.43 306.556C552.361 287.776 554.492 268.704 553.271 249.686C553.009 244.714 552.85 239.746 552.361 234.794C548.382 195.315 535.05 156.784 513.47 123.464C491.759 89.6352 461.909 61.0652 427.169 40.8552C391.169 19.8952 349.93 7.76519 308.249 6.77519C303.239 6.03519 298.159 6.57519 293.119 6.40519L292.449 6.89519C248.699 7.51519 205.398 20.9452 168.098 43.6352C131.538 66.0152 100.728 97.7352 79.548 135.015C63.208 163.485 52.649 195.214 48.439 227.754C46.468 230.154 43.548 231.494 40.949 233.084C45.699 184.596 64.989 137.765 95.089 99.5042C126.509 59.4142 169.879 28.7542 218.259 12.7752C235.16 7.18619 252.629 3.34619 270.299 1.25619Z"/>
<path d="M281.779 22.2159C286.95 19.6059 294.148 19.2159 298.45 23.6459C301.388 26.2959 301.859 30.4659 302.84 34.0859C300.03 34.3259 297.21 34.4859 294.401 34.4559C293.442 32.6759 293.401 29.8459 291.182 29.1059C289.391 28.6459 287.551 29.1559 285.772 29.3559C285.63 30.8559 285.551 32.3559 285.512 33.8659C290.59 35.7359 296.29 36.7959 300.272 40.7659C304.721 44.9659 304.373 52.1459 301.71 57.2259C297.74 64.6859 286.609 65.7149 280.41 60.5759C277.099 57.4459 276.471 52.7659 275.79 48.5059C278.811 48.5059 281.83 48.5059 284.852 48.4759C285.512 50.3059 285.772 52.3659 287.022 53.9459C288.251 55.7959 290.63 55.0759 292.501 55.1759C293.819 52.8559 294.562 50.1149 293.69 47.5059C290.781 44.7659 286.451 44.8059 283.02 43.0159C275.1 39.5559 274.259 26.5459 281.779 22.2159Z"/>
<path d="M321.44 22.6463C326.389 21.6463 332.569 21.7963 336.219 25.8563C339.229 28.9163 339.61 33.4763 339.569 37.5363C336.961 37.4663 334.36 37.2463 331.78 36.9263C330.93 35.0663 330.421 33.0863 329.649 31.1963C327.94 30.9463 325.899 29.5463 324.338 30.8263C322.317 31.7563 322.059 34.9063 324.219 35.8263C328.458 38.0763 333.28 39.8163 336.24 43.8263C340 48.4863 338.888 55.4663 335.71 60.1263C330.602 67.3563 318.16 66.9773 313.29 59.7273C311.029 56.3763 311.189 52.1373 311.051 48.2873C314.022 48.6473 316.99 49.0573 319.981 49.2173C320.511 51.5073 320.282 54.2273 322.061 56.0073C323.082 56.6083 324.261 56.8583 325.391 57.1883C325.971 56.8683 327.112 56.2383 327.682 55.9173C328.911 53.7373 329.17 51.2573 328.721 48.8173C324.71 46.2773 319.79 45.0373 316.45 41.5573C311.75 35.6963 313.8 24.9663 321.44 22.6463Z"/>
<path d="M241.25 28.8564C244.931 25.9464 250 25.2364 254.479 26.3964C259.719 28.2564 263.229 33.3764 263.958 38.7864C261.02 39.5364 258.066 40.2664 255.078 40.7064C254.618 39.2564 254.168 37.8064 253.719 36.3664C252.139 36.0064 250.569 35.6564 248.99 35.3064C247.42 36.3964 245.41 37.2764 244.99 39.3564C245.91 44.9064 247.09 50.4164 248.389 55.8764C249.099 59.5764 254.308 60.7674 256.788 58.0864C258.469 56.6264 257.838 54.1474 258.179 52.2064C260.889 51.3564 263.639 50.5064 266.469 50.1264C268.378 52.7464 268.219 56.3464 267.448 59.3564C265.489 64.6264 260.018 67.4964 254.869 68.8164C248.068 69.7664 240.39 65.1464 239.329 58.0764C238.129 51.8964 236.858 45.7264 235.808 39.5264C234.95 35.1664 237.969 31.3164 241.25 28.8564Z"/>
<path d="M381.24 49.9057C383.46 45.2557 387.689 40.6557 393.268 40.8957C401.008 40.9457 409.768 47.3157 408.468 55.8157C407.348 61.6657 403.957 66.7257 401.848 72.2357C399.45 77.2357 397.7 82.5757 394.819 87.3357C392.09 86.6257 389.62 85.2267 387.058 84.0967C387.7 80.2767 389.808 76.9767 391.247 73.4467C393.606 67.8567 396.297 62.4067 398.527 56.7667C399.447 54.8867 398.256 53.0767 397.657 51.3267C395.277 50.9767 391.975 50.1667 390.697 52.9067C386.646 61.7967 382.816 70.7867 378.758 79.6667C375.447 79.3367 372.487 77.7167 369.667 76.0867C373.459 67.3347 377.429 58.6557 381.24 49.9057Z"/>
<path d="M168.66 59.5261C171.26 57.9651 173.83 56.3261 176.559 54.9961C182.669 64.6561 187.939 74.8361 193.959 84.5571C198.479 82.0061 202.869 79.2461 207.479 76.8971C209.019 79.4371 210.479 82.0171 211.83 84.6571C204.569 88.5671 197.55 92.9071 190.34 96.9281C183.09 84.4651 176.03 71.9061 168.66 59.5261Z"/>
<path fill-rule="evenodd" clip-rule="evenodd" d="M440.319 67.6957C436.681 60.8057 426.74 58.2957 420.25 62.6157C417.989 64.2948 416.415 66.6184 414.848 68.9333C414.259 69.8032 413.671 70.6719 413.047 71.5047C412.134 72.9193 411.152 74.291 410.17 75.6624C408.646 77.7906 407.123 79.9181 405.859 82.2047C402.58 90.0347 408.55 99.3557 416.63 100.886C420.96 101.875 426.101 101.106 429.01 97.4647C431.496 94.2697 433.808 90.9408 436.119 87.611C437.497 85.6268 438.875 83.6423 440.29 81.6857C442.05 79.3657 442.43 76.4057 442.63 73.5957C442.46 73.1115 442.301 72.6225 442.142 72.1337C441.644 70.6037 441.146 69.075 440.319 67.6957ZM427.241 69.2148C425.4 70.0258 423.519 70.9448 422.44 72.7148C421.625 73.9436 420.758 75.1471 419.891 76.352C417.567 79.5803 415.237 82.8182 413.861 86.5758C414.009 86.9882 414.158 87.3991 414.307 87.8102C414.558 88.5058 414.81 89.2019 415.06 89.9058C417.9 92.1758 422.211 92.0258 424.581 89.1358C427.139 85.6358 429.65 82.0858 432.019 78.4458C433.577 76.3151 432.646 73.7228 431.848 71.5033L431.781 71.3158C430.281 70.5749 428.762 69.8858 427.241 69.2148Z"/>
<path d="M144.399 77.8346C149.359 72.6646 158.809 71.5446 163.99 76.9946C170.859 84.4446 177.939 91.7246 184.63 99.3646C182.45 101.375 180.34 103.465 178.16 105.465C171.01 98.6646 164.87 90.8856 157.76 84.0556C156.27 82.4646 153.96 83.1356 152.05 83.0756C150.82 84.9656 149.46 87.6366 151.22 89.6656C157.55 96.8356 164.19 103.746 170.8 110.666C170.77 111.276 170.75 111.896 170.73 112.517C168.48 114.317 166.451 116.367 164.32 118.307C158.36 111.706 152.1 105.376 146.211 98.7156C144.561 97.0356 142.761 94.6866 140.081 95.4456C137.331 96.2156 135.641 99.9456 137.961 102.116C144.531 109.476 151.351 116.616 158.141 123.786C156.131 126.226 153.711 128.266 151.301 130.307C144.491 123.237 137.911 115.937 131.141 108.836C127.202 105.076 126.511 98.9156 128.662 94.0456C130.401 88.9456 135.651 86.0166 140.851 85.7756C141.599 82.9646 142.309 79.9956 144.399 77.8346Z"/>
<path d="M224.049 92.3256C259.43 76.0856 300.049 71.7556 338.1 79.8756C374.85 87.5566 408.941 107.017 434.539 134.427C448.529 149.496 460.05 166.826 468.477 185.586C474.177 198.966 478.818 212.898 481.137 227.296C462.007 223.546 443.116 218.456 424.746 211.906C416.026 208.756 407.387 205.276 399.236 200.836C397.946 200.166 396.796 199.286 395.906 198.156C392.216 193.776 388.526 189.416 384.826 185.056C383.895 183.346 381.895 183.994 380.347 183.914C380.006 182.136 379.746 180.346 379.517 178.564C375.887 174.864 375.966 169.604 375.796 164.774C374.296 150.124 375.017 135.064 370.696 120.814C365.026 108.194 353.406 97.9836 339.576 95.5836C329.805 94.0546 319.696 94.8136 310.196 97.5336C292.536 102.484 276.395 111.595 261.086 121.504C247.257 130.595 234.116 140.704 221.397 151.275C205.668 152.145 191.127 158.815 177.307 165.865C168.247 170.275 159.207 175.155 149.257 177.235C144.307 177.865 139.327 178.245 134.457 179.424C153.069 141.196 185.3 109.835 224.049 92.3256Z"/>
<path fill-rule="evenodd" clip-rule="evenodd" d="M453.217 82.627C452.889 82.9954 452.564 83.3605 452.23 83.6964C448.501 87.8664 444.662 91.935 440.823 96.0035C436.322 100.773 431.821 105.543 427.498 110.476C428.565 111.464 429.615 112.482 430.666 113.503C434.247 116.977 437.851 120.473 442.248 122.846C446.769 124.295 452.429 123.996 455.889 120.356C460.218 115.996 464.4 111.486 468.48 106.896C471.269 103.986 472.121 99.6374 471.48 95.7464C470.243 91.0303 466.727 87.8892 463.212 84.7489C461.413 83.1415 459.614 81.5344 458.121 79.7164C455.929 79.58 454.549 81.1306 453.217 82.627ZM462.241 99.5164C462.088 96.3664 459.991 94.0664 457.429 92.5264C451.919 98.6364 446.3 104.646 440.61 110.585C441.82 111.746 443.041 112.926 444.251 114.106C444.968 114.122 445.689 114.134 446.412 114.147C447.122 114.159 447.832 114.172 448.541 114.186C452.575 109.978 456.533 105.694 460.488 101.414C461.072 100.781 461.656 100.149 462.241 99.5164Z"/>
<path d="M451.219 134.136C462.889 125.696 474.519 117.205 486.208 108.795C490.378 114.806 494.788 120.646 499.028 126.606C496.618 128.306 494.346 130.226 491.738 131.606C488.878 128.366 486.488 124.736 483.988 121.215C482.128 122.516 480.248 123.785 478.368 125.045C478.477 127.965 480.889 129.955 482.266 132.356C480.056 134.005 477.817 135.636 475.516 137.166C473.988 135.036 472.516 132.866 470.796 130.896C468.806 132.056 466.945 133.406 465.067 134.715C464.738 135.125 464.078 135.945 463.748 136.356C466.288 139.786 468.828 143.215 471.219 146.766C468.849 148.566 466.418 150.276 463.908 151.875C459.759 145.906 455.069 140.306 451.219 134.136Z"/>
<path d="M110.189 113.556C111.129 112.285 111.899 110.826 113.21 109.896C115.819 111.056 117.899 113.116 120.21 114.776C118.39 117.306 116.52 119.786 114.84 122.426C124.069 129.035 133.18 135.806 142.43 142.375C141.06 144.976 139.25 147.295 137.48 149.625C128.07 142.965 118.85 136.045 109.43 129.405C107.83 131.775 106.31 134.215 104.47 136.405C101.54 136.255 99.5 133.375 97.05 131.985C101.04 125.576 105.929 119.786 110.189 113.556Z"/>
<path d="M86.75 151.056C88.32 148.005 89.9 144.955 91.81 142.106C104.161 148.826 116.831 155.045 128.98 162.116C129.13 165.496 126.27 168.516 124.68 171.427C119.57 168.987 114.89 165.626 109.55 163.727C108.76 165.466 107.95 167.216 107.16 168.977C111.979 171.857 117.319 173.857 121.889 177.177C120.419 180.156 118.809 183.068 117.249 185.996C104.579 179.626 92.159 172.746 79.619 166.156C79.149 164.256 80.789 162.506 81.459 160.796C82.349 159.546 82.709 157.567 84.279 157.017C89.359 159.287 94.058 162.347 99.138 164.647C100.078 162.897 101.038 161.157 102.058 159.447C96.979 156.606 91.78 153.976 86.75 151.056Z"/>
<path d="M468.37 155.816C469.5 152.736 473.319 152.545 475.75 154.156C476.811 156.336 476.899 158.646 475.689 160.786C474.468 161.266 473.258 161.746 472.047 162.246C469.819 160.996 466.53 158.746 468.37 155.816Z"/>
<path d="M320.859 175.926C330.04 168.026 341.599 164.026 352.967 160.465L353.787 161.066C355.106 162.056 356.598 162.746 358.098 163.456C345.467 168.446 333.297 174.526 320.837 179.906C320.818 178.566 320.83 177.255 320.859 175.926Z"/>
<path d="M478.969 169.476C480.639 165.536 484.429 163.136 488.198 161.486C489.488 164.456 490.846 167.396 492.118 170.386C489.528 171.776 487.107 173.825 487.668 177.066C489.168 177.446 490.738 178.766 492.328 177.956C501.798 174.146 510.849 169.376 520.208 165.316C521.559 168.456 523.088 171.505 524.349 174.686C517.538 177.976 510.61 181.026 503.798 184.316C499.099 186.206 494.218 189.016 488.979 188.026C480.94 186.686 475.45 176.936 478.969 169.476Z"/>
<path d="M157.359 190.306C181.28 185.486 200.589 167.436 225.16 164.906C222.319 176.516 218.88 187.976 216.09 199.606C215.25 203.246 215.39 207.056 214.26 210.636C207.87 235.446 204.66 260.936 198.71 285.845C197.1 293.324 198 301.055 199.42 308.493C200.13 313.464 201.18 318.423 203.12 323.083C194.93 323.435 186.89 326.225 179.92 330.475C171.97 335.156 166 343.373 156.41 344.913C144.399 345.783 134.08 338.063 122.33 337.174C118.069 337.153 114.1 339.283 109.809 339.113C110.589 338.533 111.37 337.972 112.16 337.413C118.17 334.265 124.149 330.623 131 329.642C139.359 328.693 147.77 328.102 156.069 326.722C160.609 325.903 164.79 323.762 168.25 320.733C172.81 316.892 180.3 316.063 182.38 309.743C182.819 305.243 181.88 297.983 176.25 297.385C171.45 298.073 167.5 301.283 163.8 304.196C157.64 309.046 152.08 314.696 145.43 318.906C142.44 320.968 138.66 320.366 135.241 320.416C130.18 320.336 125.371 318.427 120.35 318.046C112.76 318.848 105.51 321.438 98.32 323.876C92.81 325.576 87.18 327.438 81.341 327.147C73.411 326.918 65.851 324.028 58.841 320.498C63.661 320.338 68.531 320.769 73.321 319.977C89.531 317.648 104.201 309.788 119.991 305.898C125.031 304.418 130.461 305.938 135.421 304.006C142.871 301.426 149.891 295.195 150.911 287.035C151.421 283.875 150.171 280.935 148.701 278.245C144.221 274.176 137.991 276.637 133.39 279.137C120.11 286.658 109.201 297.658 96.02 305.325C92.451 307.355 88.371 308.554 84.241 308.387C75.411 308.148 66.951 305.335 58.27 303.988C50.26 302.498 42.09 302.788 33.991 303.108C49.241 295.727 66.631 296.498 82.961 293.506C88.941 292.358 95.461 291.568 100.351 287.637C102.291 286.237 102.361 283.658 102.691 281.518C100.641 275.768 95.891 270.288 89.372 270.158C79.262 270.47 70.862 276.868 62.732 282.158C57.112 285.788 51.431 291.028 44.221 290.179C36.831 289.179 29.612 286.741 22.081 286.838L21.431 286.408C14.181 286.278 6.94202 287.049 -0.177979 288.378C5.82202 284.628 11.882 280.72 18.761 278.798C26.891 276.429 35.501 277.378 43.761 275.878C57.532 271.98 66.411 259.69 78.721 253.14C82.402 251.35 86.581 249.86 90.711 250.77C101.101 252.45 107.271 262.588 117.221 265.319C126.101 267.5 135.391 264.13 142.571 258.92C146.471 256.21 149.662 252.32 150.721 247.61C148.931 242.63 142.711 241.66 138.101 242.089C130.372 242.779 125.831 249.86 119.311 253.129C109.591 252.061 102.492 244.659 93.572 241.521C87.832 240.071 81.172 240.771 76.521 244.709C69.112 250.669 61.341 256.649 52.051 259.339C41.261 262.839 29.612 261.101 19.072 257.561C30.092 256.441 41.272 254.089 50.822 248.22C62.532 241.241 71.242 228.839 85.282 226.181C93.092 224.151 100.811 227.651 107.521 231.351C111.761 233.47 116.372 235.981 121.271 235.049C128.662 233.369 134.021 227.659 140.251 223.779C143.201 221.869 147.19 221.699 149.431 218.729C151.311 217.167 150.681 214.599 150.841 212.468C148.921 210.337 146.311 208.657 143.32 209.239C133.6 210.079 127.85 219.55 118.8 222.129C115.36 222.869 112.09 221.289 108.88 220.289C103.55 218.439 97.97 217.069 92.28 217.329C87.07 217.069 82.12 218.869 77.059 219.76C79.44 217.651 81.789 215.391 84.78 214.159C91.88 210.939 99.92 212.319 107.37 210.669C114.16 208.999 119.359 204.079 125.17 200.51C131.24 196.379 138.09 193.361 145.319 191.97C149.269 191.005 153.389 191.226 157.359 190.306Z"/>
<path d="M327.479 189.946C335.889 183.966 343.979 177.156 353.628 173.226C351.448 175.696 348.988 177.887 346.389 179.875C336.469 187.557 326.41 195.045 316.11 202.205C318.169 196.835 323.33 193.606 327.479 189.946Z"/>
<path d="M362.24 182.816C365.098 181.816 368.189 181.536 371.16 182.236C371.389 187.646 366.2 190.806 362.75 194.136C351.971 202.736 339.42 208.754 326.71 213.914C327.46 208.624 329.261 203.584 331.148 198.624C341.148 192.706 351.149 186.505 362.24 182.816Z"/>
<path d="M509.99 196.516C512.178 192.454 516.969 190.866 521.28 190.386C529.62 190.504 534.34 200.346 532.42 207.615C531.12 212.585 526.29 215.105 521.891 216.855C521.13 214.145 520.442 211.415 519.743 208.695C521.253 207.424 524.093 206.875 524.083 204.485C524.133 203.045 523.833 201.635 523.684 200.214C522.275 199.784 520.854 199.396 519.434 199.084C519.093 199.675 518.423 200.834 518.083 201.425C517.873 207.324 517.493 214.096 512.764 218.316C509.303 221.836 503.913 221.746 499.383 221.076C491.503 218.976 487.873 209.166 490.724 201.967C492.753 197.576 497.413 195.506 501.703 193.938C502.594 196.848 503.333 199.796 504.033 202.756C501.783 204.156 497.844 205.228 498.471 208.648C498.102 210.448 499.892 211.288 500.92 212.408C503.191 212.168 506.142 212.518 507.511 210.219C508.69 205.726 507.969 200.795 509.99 196.516Z"/>
<path fill-rule="evenodd" clip-rule="evenodd" d="M330.33 108.255C314.148 110.106 299.33 117.676 285.398 125.686C269.459 135.096 254.58 146.186 240.185 157.802C239.532 158.35 239.29 159.186 239.053 160.005C238.975 160.276 238.897 160.546 238.805 160.802C237.687 165.11 236.531 169.408 235.376 173.706C233.308 181.4 231.24 189.093 229.385 196.843C229.026 198.138 228.947 199.47 228.869 200.803C228.79 202.144 228.711 203.487 228.345 204.791C224.537 219.521 221.745 234.468 218.953 249.411C217.72 256.015 216.486 262.618 215.165 269.201C214.774 271.204 214.296 273.199 213.818 275.195C212.596 280.292 211.372 285.397 211.595 290.672C211.812 297.198 213.039 303.606 214.264 310.005C214.623 311.881 214.982 313.756 215.315 315.633C216.196 320.143 217.156 325.002 220.595 328.343C223.105 331.201 226.677 332.683 230.156 334.002C239.036 336.111 248.206 336.321 257.296 336.191C285.046 336.529 312.778 335.141 340.397 332.67C349.707 331.885 358.98 330.839 368.258 329.794C370.921 329.493 373.584 329.193 376.249 328.899C416.467 323.551 456.667 317.399 496.228 308.249C506.108 306.351 514.551 299.232 519.28 290.511C524.558 280.101 524.617 267.431 520.138 256.721C517.758 251.271 512.337 247.981 506.957 246.031C499.944 243.596 492.671 242.15 485.401 240.704C482.699 240.167 479.996 239.629 477.308 239.041C458.228 235.031 439.417 229.673 421.138 222.883C412.24 219.461 403.359 215.821 395.178 210.883C392.576 209.388 390.727 207.008 388.889 204.644C387.173 202.435 385.466 200.24 383.167 198.791C376.39 199.674 370.701 203.584 365.133 207.41C363.692 208.401 362.258 209.387 360.816 210.312C355.444 214.092 349.385 216.83 343.004 218.392C342.776 217.722 342.305 216.372 342.065 215.692C342.158 215.228 342.299 214.515 342.437 213.821C342.554 213.227 342.669 212.648 342.747 212.252C340.393 213.094 338.128 214.167 335.864 215.239C332.422 216.87 328.982 218.499 325.237 219.314C323.975 217.284 322.885 215.154 321.987 212.934C322.055 211.534 322.135 210.134 322.225 208.734C322.404 207.704 322.776 205.644 322.965 204.614C321.436 205.178 319.956 205.874 318.477 206.57C315.786 207.835 313.099 209.1 310.124 209.564V205.564C310.874 199.804 313.334 194.514 316.084 189.462C315.433 189.301 314.742 189.232 314.048 189.163C312.646 189.023 311.237 188.883 310.145 187.974C310.035 186.43 310.047 184.893 310.059 183.364C310.061 183.1 310.064 182.837 310.065 182.574C311.065 176.635 313.936 170.914 318.787 167.214C328.436 159.615 340.867 157.175 352.657 154.985C352.967 157.025 353.277 159.065 353.787 161.065C355.056 162.017 356.48 162.69 357.919 163.37L358.098 163.455C360.105 163.297 362.075 162.86 364.043 162.424C364.937 162.225 365.831 162.027 366.728 161.855C366.116 157.897 365.952 153.906 365.787 149.917C365.646 146.489 365.505 143.061 365.08 139.655C365.052 139.369 365.025 139.081 364.997 138.793C364.318 131.688 363.584 124.003 358.559 118.505C352.149 109.905 340.59 106.875 330.33 108.255ZM281.102 225.525C272.352 226.606 263.682 231.767 261 240.585C259.25 248.036 261.27 257.306 268.523 261.101C267.188 261.105 265.835 261.538 264.49 261.969C262.205 262.7 259.945 263.424 257.841 262.021C257.024 260.757 256.586 259.233 256.148 257.713C255.381 255.047 254.617 252.393 251.82 251.169C248.507 248.869 244.862 250.655 241.708 252.201C241.53 252.288 241.354 252.374 241.18 252.459C236.01 252.22 230.242 252.88 226.521 256.891C220.51 263.311 223.321 275.411 231.981 277.951C231.991 278.351 231.993 278.756 231.994 279.163C231.999 281.067 232.004 283.017 232.96 284.722C233.879 286.234 235.359 287.184 236.829 288.129C237.324 288.447 237.819 288.764 238.29 289.102C243.429 287.737 248.699 287.845 253.962 287.953C255.49 287.985 257.017 288.016 258.54 288.011C259.742 287.366 260.956 286.73 262.17 286.095L262.37 285.99C263.149 286.217 263.93 286.452 264.714 286.688C265.271 286.856 265.83 287.024 266.391 287.19C266.809 289.548 267.58 291.83 268.58 294.019C261.83 300.11 260.891 311.17 266.62 318.24C273.481 326.91 286.62 328.508 296.18 323.729C300.663 321.54 303.803 317.55 306.032 313.2C311.243 314.95 317.34 314.532 321.731 311.011C326.752 312.743 332.071 313.472 337.231 311.852C338.151 316.511 341.731 321.142 346.873 320.96C352.195 320.03 356.213 315.838 359.263 311.65C362.244 310.769 364.963 309.229 367.223 307.087C372.963 311.458 380.673 310.917 386.913 307.979C388.033 308.67 389.152 309.389 390.271 310.11C391.798 309.83 393.402 309.666 395.02 309.5C399.899 308.999 404.916 308.483 408.402 304.758C411.78 301.787 412.561 296.937 411.55 292.737C410.892 290.881 410.811 288.931 410.731 286.989C410.622 284.359 410.513 281.743 408.971 279.396C413.149 276.517 417.2 272.167 416.71 266.697C417.33 262.657 414.46 259.487 411.819 256.867C413.16 253.397 412.88 249.657 411.859 246.157C416.127 240.407 411.877 232.117 405.308 230.707C399.37 229.147 392.721 233.117 391.41 239.167C389.601 240.037 387.79 240.897 385.96 241.707C379.71 236.867 371.221 237.387 364.141 239.857C363.222 236.387 362.021 232.375 358.493 230.727C355.12 228.537 350.76 229.117 347.391 230.987C346.065 231.774 344.695 231.318 343.308 230.856C342.321 230.526 341.325 230.194 340.33 230.307C338.328 230.026 336.709 231.043 335.1 232.054C334.466 232.452 333.834 232.849 333.18 233.165C332.927 233.041 332.671 232.914 332.414 232.785C329.907 231.532 327.21 230.184 324.391 231.335C319.37 233.177 314.529 237.447 314.17 243.097C312.022 242.947 309.873 242.897 307.731 242.897C306.42 238.505 304.971 233.745 301.182 230.835C295.663 226.195 288.081 225.105 281.102 225.525Z"/>
<path d="M351.059 236.266C352.599 235.704 354.259 236.076 355.86 236.116C357.211 238.536 358.099 242.246 355.57 244.206C353.57 244.977 350.621 244.856 349.711 242.566C348.25 240.486 349.569 237.906 351.059 236.266Z"/>
<path d="M320.77 242.456C322.059 239.706 324.94 238.246 327.588 237.076C331.19 245.286 329.118 254.576 330.748 263.186C331.639 264.236 332.668 265.176 333.658 266.156C333.687 266.695 333.738 267.786 333.767 268.326C330.277 269.976 326.328 269.546 322.597 269.286C322.566 268.677 322.517 267.445 322.488 266.836C323.198 265.746 323.918 264.656 324.467 263.478C324.326 257.558 323.518 251.666 323.626 245.738C322.669 244.666 320.18 244.375 320.77 242.456Z"/>
<path d="M334.5 240.696C336.568 238.916 338.682 237.016 341.439 236.446C343.58 241.216 343.189 246.576 343.7 251.676C344.08 256.176 342.76 261.544 346.41 265.026C347.62 265.026 348.83 265.026 350.051 265.026C350.53 264.457 351.482 263.327 351.95 262.767C351.978 259.746 351.978 256.727 351.84 253.715C350.95 253.495 349.17 253.067 348.28 252.847C349.12 249.237 352.34 247.117 355.54 245.795C357.721 250.875 356.688 256.545 357.74 261.865C358.808 262.975 359.888 264.085 360.979 265.195C360.939 265.685 360.87 266.646 360.838 267.126C357.609 267.729 354.327 267.996 351.048 268.036C350.027 267.265 349.008 266.525 347.997 265.765C345.548 270.286 339.588 268.906 335.497 268.015C336.367 265.605 338.377 263.475 338.048 260.753C337.849 256.424 337.548 252.095 337.338 247.765C337.189 246.725 337.058 245.695 336.947 244.663C334.83 244.295 334.568 242.476 334.5 240.696Z"/>
<path d="M371.849 247.375C374.269 245.855 377.468 243.815 380.258 245.695C383.279 247.745 382.86 251.735 383.158 254.905C383.028 257.605 385.936 258.926 386.128 261.545C383.618 264.215 381.118 268.727 376.758 267.115C377.548 261.875 378.968 256.165 376.488 251.165C374.958 251.557 373.458 251.965 371.936 252.355C371.538 254.463 370.788 256.575 371.085 258.753C371.346 261.663 374.056 263.323 375.386 265.732C371.907 267.433 368.028 267.443 364.255 267.232C363.865 266.753 363.075 265.783 362.686 265.302C363.647 264.302 364.618 263.323 365.636 262.381C365.907 261.562 366.198 260.762 366.476 259.95C366.038 257.79 365.835 255.6 365.715 253.41C364.965 253.27 363.486 252.99 362.736 252.85C362.756 251.31 363.134 249.839 363.696 248.43C365.406 247.28 367.105 246.11 368.855 244.998C369.934 246.22 370.673 247.648 371.394 249.118C371.509 248.686 371.74 247.816 371.849 247.375Z"/>
<path fill-rule="evenodd" clip-rule="evenodd" d="M406.95 241.776C408.03 237.026 400.641 235.186 398.58 239.106C397.319 240.294 397.909 241.833 398.457 243.264C398.609 243.662 398.759 244.052 398.864 244.424C395.435 244.894 392.095 245.824 389.044 247.484C388.909 247.8 388.764 248.12 388.617 248.442C387.838 250.147 387.022 251.933 387.635 253.834C387.879 255.289 388.942 256.276 389.993 257.252C390.409 257.639 390.824 258.024 391.185 258.436C390.055 259.415 388.947 260.426 387.845 261.436C387.845 262.335 387.845 263.245 387.856 264.165C388.191 264.5 388.527 264.837 388.863 265.176C389.239 265.554 389.617 265.934 389.997 266.314C392.777 266.375 395.556 266.375 398.327 266.155L398.42 266.147C400.244 265.998 402.499 265.814 403.717 267.505C404.326 270.285 401.707 271.057 399.475 271.716C398.96 271.867 398.466 272.013 398.037 272.176C396.439 271.384 395.065 270.272 393.692 269.16C392.917 268.532 392.142 267.905 391.327 267.335C388.737 266.865 386.447 269.835 387.697 272.255C388.973 274.687 392.052 275.207 394.614 275.64C394.843 275.678 395.068 275.716 395.287 275.755C401.569 276.234 409.337 273.545 410.757 266.625C410.655 266.409 410.554 266.187 410.452 265.962C409.718 264.348 408.923 262.599 407.149 261.985C405.092 260.984 402.932 261.294 400.775 261.604C398.577 261.919 396.381 262.235 394.297 261.165C394.432 260.869 394.658 260.382 394.853 259.964C394.947 259.762 395.033 259.576 395.098 259.436C395.912 259.168 396.79 258.941 397.685 258.71C400.995 257.855 404.541 256.94 405.95 253.636C407.094 250.216 404.805 247.733 402.621 245.363C401.925 244.608 401.239 243.865 400.679 243.106C401.251 243.071 401.866 243.127 402.487 243.182C404.199 243.336 405.952 243.494 406.95 241.776ZM399.418 249.216C397.121 248.848 393.82 248.656 393.059 251.496C392.341 253.11 393.711 253.858 394.961 254.54C395.399 254.78 395.823 255.011 396.136 255.268C397.868 254.558 399.588 253.818 401.198 252.848C400.759 251.546 400.158 250.348 399.418 249.216Z"/>
<path fill-rule="evenodd" clip-rule="evenodd" d="M295.318 234.646C289.971 231.466 283.238 231.336 277.379 233.076C272.87 234.375 268.62 237.715 267.421 242.42C265.892 247.248 267.503 253.41 272.232 255.85C273.515 256.549 274.764 255.937 275.965 255.349C276.345 255.163 276.721 254.979 277.091 254.84C277.232 252.513 276.047 250.651 274.852 248.772C274.018 247.461 273.179 246.142 272.78 244.65C275.098 238.23 283.469 236.788 289.27 238.76C293.04 239.89 295.75 244.948 292.83 248.208C291.175 250.604 288.234 250.572 285.596 250.544C285.273 250.54 284.954 250.537 284.642 250.538C284.722 248.208 284.91 245.89 285.341 243.6C285.011 243.05 284.693 242.51 284.381 241.97C284.034 241.962 283.681 241.949 283.325 241.936C280.47 241.83 277.407 241.717 275.523 244.26C275.742 244.577 275.974 244.896 276.208 245.217C277.426 246.889 278.704 248.646 278.613 250.81C278.575 252.887 278.695 254.962 278.815 257.036C278.946 259.297 279.077 261.557 279.003 263.82C278.953 265.42 278.212 266.777 277.469 268.137C277.041 268.921 276.612 269.707 276.315 270.54C276.762 271.384 277.496 271.985 278.231 272.587C278.55 272.848 278.87 273.11 279.166 273.392C282.586 271.533 285.529 268.805 287.467 265.413C287.776 264.187 288.065 262.945 288.335 261.715C287.268 261.228 286.206 260.746 285.148 260.268C285.029 258.596 284.919 256.926 284.818 255.266C284.818 255.266 284.818 255.265 284.818 255.265C285.018 255.237 285.316 255.198 285.621 255.159C285.97 255.114 286.328 255.068 286.558 255.035C286.592 255.138 286.626 255.24 286.66 255.343C286.808 255.79 286.955 256.237 287.102 256.684C287.843 258.936 288.583 261.185 289.457 263.396C289.457 263.396 289.457 263.396 289.457 263.396C292.2 270.286 296.569 277.095 303.347 280.564C310.107 283.894 319.507 282.734 323.836 276.075C323.804 275.801 323.78 275.498 323.756 275.178C323.614 273.326 323.431 270.945 321.206 270.887C319.046 270.679 317.076 271.583 315.107 272.487C312.813 273.54 310.52 274.592 307.927 273.887C299.586 271.445 295.156 262.865 292.286 255.295C292.643 255.142 293.008 254.992 293.376 254.842C295.428 254.003 297.562 253.131 298.927 251.316C302.797 246.116 300.967 237.786 295.318 234.646Z"/>
<path fill-rule="evenodd" clip-rule="evenodd" d="M318.378 254.005C316.081 249.527 310.081 248.057 305.69 250.215C298.02 253.576 298.12 266.686 305.741 270.025C309.36 270.905 314.059 271.245 316.809 268.205C320.559 264.535 320.448 258.517 318.378 254.005ZM313.898 257.706C313.52 254.566 309.061 253.018 306.919 255.416C304.91 257.505 305.148 261.136 306.357 263.606C307.279 265.836 309.927 265.597 311.898 265.326C314.663 263.894 314.235 260.432 313.917 257.856L313.898 257.706Z"/>
<path fill-rule="evenodd" clip-rule="evenodd" d="M249.7 256.966C247.49 256.526 245.708 257.558 244.269 259.166C242.972 259.307 241.611 259.236 240.245 259.164C237.43 259.018 234.593 258.87 232.252 260.569C229.311 262.52 228.832 267.12 231.122 269.73C232.721 272.078 236.981 272.447 238.601 269.918C240.712 272.812 239.888 276.177 239.092 279.422C238.851 280.404 238.613 281.375 238.46 282.318C241.771 282.576 243.671 279.921 245.385 277.526C245.592 277.237 245.796 276.952 246 276.676C245.309 275.808 244.62 274.947 243.939 274.097C243.749 271.899 243.684 269.694 243.62 267.488C243.573 265.871 243.526 264.253 243.429 262.638C243.816 262.604 244.204 262.576 244.593 262.548C245.801 262.461 247.012 262.374 248.2 262.086C249.752 261.087 249.727 259.306 249.705 257.656C249.702 257.422 249.699 257.192 249.7 256.966ZM233.585 265.793C233.523 266.224 233.462 266.651 233.359 267.045C233.793 267.075 234.229 267.094 234.667 267.113C236.4 267.188 238.145 267.264 239.75 268.046C239.571 266.076 239.441 264.116 239.351 262.166C238.021 262.166 236.71 262.295 235.42 262.566C233.975 263.087 233.777 264.457 233.585 265.793Z"/>
<path d="M248.2 262.085C248.929 262.356 250.388 262.887 251.13 263.147C251.5 265.227 251.522 267.357 251.682 269.477C253.932 268.335 256.243 267.926 258.46 269.387C258.689 271.317 258.891 273.245 259.04 275.188C259.648 276.045 260.269 276.917 260.891 277.795C259.772 279.108 258.62 280.387 257.412 281.625C256.691 281.484 255.264 281.205 254.542 281.064C255.592 278.154 256.4 274.765 254.452 272.015C253.521 272.344 252.64 272.792 251.764 273.234C251.785 274.625 251.842 276.035 251.944 277.435C252.653 278.595 253.393 279.745 254.173 280.873C251.793 281.203 249.394 281.413 246.993 281.464C246.942 281.083 246.843 280.315 246.793 279.923C247.413 278.975 248.033 278.043 248.623 277.096C247.894 274.026 247.942 270.856 247.934 267.725C244.37 266.896 247.53 264.016 248.2 262.085Z"/>
<path fill-rule="evenodd" clip-rule="evenodd" d="M272.797 271.616C272.08 267.826 267.88 267.559 264.818 268.166C262.29 270.516 260.85 274.125 262.657 277.386C264.138 282.236 273.608 281.406 272.837 275.945C271.834 276.06 270.861 276.321 269.889 276.582C268.65 276.915 267.413 277.248 266.117 277.275C265.968 276.833 265.679 275.953 265.537 275.515C265.87 275.5 266.25 275.496 266.657 275.491C269.552 275.455 273.849 275.402 272.797 271.616ZM264.219 271.736C266.1 271.166 267.998 270.646 269.93 270.215C270.279 273.746 265.898 274.105 264.219 271.736Z"/>
<path d="M285.389 277.386C287.479 277.696 289.368 275.016 291.338 276.534C294.02 278.784 295.649 282.374 295.52 285.886C294.639 286.615 293.628 287.136 292.639 287.686C290.118 285.584 287.588 283.386 284.451 282.307C283.229 282.745 282.001 283.186 280.791 283.636C280.631 285.136 278.961 287.147 280.991 288.044C286.19 291.056 292.541 291.726 297.302 295.636C300.121 299.407 301.103 304.106 300.652 308.744C297.652 320.274 281.504 323.404 273.183 315.765C267.982 311.475 267.933 301.605 274.193 298.253C277.472 296.225 282.263 296.253 284.754 299.503C284.294 300.595 283.846 301.693 283.395 302.793C281.166 303.555 278.436 303.673 276.895 305.673C276.124 308.493 277.266 311.856 280.106 313.015C283.866 314.673 288.964 314.293 291.936 311.265C295.294 307.435 294.287 300.725 289.735 298.276C285.266 295.906 280.055 295.086 275.837 292.206C272.526 289.916 271.957 284.996 274.349 281.849C276.66 278.166 281.25 276.826 285.389 277.386Z"/>
<path d="M389.98 282.406C392.709 279.968 396.809 282.406 399.599 280.086C400.11 280.086 401.139 280.076 401.65 280.076C403.008 282.218 404.059 284.546 404.911 286.956C402.011 289.566 399.059 286.896 396.501 285.286C396.041 285.348 395.102 285.445 394.642 285.506C394.631 286.286 394.621 287.076 394.631 287.876C397.921 289.376 401.943 289.756 404.551 292.478C406.541 294.598 405.121 297.478 404.541 299.899C401.911 302.159 398.551 302.779 395.182 302.177C393.972 302.768 392.693 303.927 391.261 303.319C388.881 301.319 387.341 298.369 387.443 295.228C391.073 293.319 393.874 296.859 397.102 297.957C399.483 298.917 398.954 295.968 399.233 294.686C395.841 293.596 392.403 292.584 389.222 290.957C388.863 290.377 388.142 289.218 387.784 288.639C387.74 286.375 388.19 283.956 389.98 282.406Z"/>
<path d="M350.349 285.775C353.12 284.135 356.531 282.355 359.701 284.135C365.809 287.573 366.551 296.845 362.61 302.203C360.661 305.273 356.048 306.182 353.139 303.974C351.429 303.094 351.288 300.292 352.82 299.184C354.251 298.974 355.711 298.884 357.179 298.905C359.509 296.665 360.11 293.545 358.588 290.655C358.028 290.264 356.908 289.485 356.349 289.094C354.208 289.115 351.491 289.644 350.998 292.134C350.628 295.474 350.878 298.855 351.009 302.213C350.958 304.144 352.929 305.094 353.82 306.605C354.281 308.172 352.769 309.245 351.979 310.375C350.048 312.227 347.991 314.945 344.958 314.137C343.738 311.387 345.458 308.528 345.378 305.717C345.197 301.205 344.607 296.727 344.729 292.217C343.758 291.745 342.791 291.285 341.838 290.825C341.748 290.264 341.567 289.144 341.488 288.585C343.447 286.467 345.588 284.085 348.668 283.848C349.089 284.326 349.929 285.295 350.349 285.775Z"/>
<path d="M305.669 288.005C307.52 286.365 310.029 285.967 312.318 285.307C314.427 286.045 316.847 286.467 318.467 288.137C319.677 289.767 319.357 292.295 317.456 293.285C314.727 292.184 312.026 290.717 308.985 291.184C307.276 294.214 306.514 298.724 309.696 301.082C313.094 302.752 316.296 299.322 319.805 299.862C319.873 301.641 320.714 304.072 318.753 305.181C316.094 307.721 312.123 307.869 308.725 307.17C301.2 304.446 299.629 292.986 305.669 288.005Z"/>
<path fill-rule="evenodd" clip-rule="evenodd" d="M385.109 286.827C382.54 281.334 374.391 280.544 370.29 284.686C367.53 287.585 366.49 291.924 367.643 295.757C368.425 300.889 373.433 304.077 378.404 304.007C378.834 303.853 379.28 303.707 379.732 303.559C382.034 302.807 384.487 302.006 385.723 299.797C385.835 298.906 385.74 298.014 385.646 297.129C385.606 296.753 385.566 296.379 385.542 296.007C383.96 295.953 382.442 296.528 380.95 297.093C378.546 298.003 376.208 298.888 373.771 297.087C373.67 296.577 373.471 295.537 373.38 295.027C374.073 295.021 374.773 295.035 375.477 295.05C378.409 295.11 381.392 295.171 384.069 293.777C386.75 292.647 386.12 288.957 385.109 286.827ZM380.599 289.896C380.41 286.218 376.67 286.836 374.12 287.416C373.509 288.666 372.91 289.916 372.338 291.185C375.128 291.043 377.911 290.666 380.599 289.896Z"/>
<path fill-rule="evenodd" clip-rule="evenodd" d="M334.8 285.518C330.811 284.355 325.571 284.586 323.05 288.416C318.669 293.996 320.68 302.936 327.068 306.086C327.791 306.059 328.527 306.076 329.267 306.092C331.527 306.143 333.817 306.194 335.829 305.018C338.589 303.687 339.709 300.626 340.579 297.916C340.731 293.279 339.76 287.348 334.8 285.518ZM332.433 290.129C330.976 289.89 329.483 289.645 328.109 290.276C325.823 292.31 326.316 295.633 326.722 298.367C326.735 298.454 326.747 298.54 326.76 298.626C327.939 302.086 333.62 302.006 334.66 298.536C335.811 295.725 334.772 292.807 333.46 290.286C333.121 290.241 332.778 290.185 332.433 290.129Z"/>
<path d="M506.399 319.356C513.468 317.736 518.598 312.206 524.058 307.986C533.957 309.015 543.37 313.696 550.297 320.816C556.359 327.576 560.537 336.435 560.149 345.666C560.717 357.927 554.24 369.718 544.808 377.246C528.87 390.336 503.667 390.605 487.938 377.017C478.627 369.246 473.337 356.746 474.859 344.658C475.63 337.307 478.728 330.358 483.2 324.517C490.969 322.986 498.66 321.045 506.399 319.356Z"/>
<path d="M48.57 327.816C51.48 330.725 54.33 333.696 57.29 336.555C59.44 338.396 59.78 341.366 60.769 343.873C75.03 384.193 99.649 420.773 131.66 449.153C160.18 474.552 194.45 493.533 231.25 503.852C273.182 515.722 318.2 516.523 360.5 506C420.46 491.49 474.311 453.892 509.062 402.99C512 402.65 514.953 402.33 517.92 402.2C482.569 456.471 426.351 496.87 363.41 512.382C348.28 516.33 332.76 518.682 317.181 519.711C295.839 521.132 274.339 519.86 253.299 516.052C211.86 508.58 172.4 490.642 139.329 464.613C95.509 430.266 62.969 381.656 48.57 327.816Z"/>
<path d="M445.889 331.456C447.16 331.308 448.48 330.836 449.781 331.156C457.552 337.475 463.099 346.595 464.341 356.616C467.432 376.196 453.381 395.786 434.772 401.336C422.211 405.416 407.784 403.736 396.812 396.256C388.211 390.666 381.841 381.677 379.791 371.586C377.4 361.468 379.761 350.468 385.411 341.826C386.099 340.336 387.9 340.526 389.251 340.265C408.2 337.795 427.059 334.696 445.889 331.456Z"/>
<path d="M184.099 363.656C188.2 350.906 198.229 339.786 211.129 335.666C212.899 341.156 217.229 345.566 222.759 347.296C234.918 351.427 247.988 349.768 260.6 350.138C266.798 359.286 270.03 370.808 267.701 381.779C264.421 401.239 246.001 416.558 226.331 416.539C212.02 417.239 197.671 410.069 189.631 398.209C182.719 388.255 180.84 375.286 184.099 363.656Z"/>
<path d="M292.419 349.286C313.43 348.336 334.44 346.826 355.329 344.286C362.727 351.796 367.477 362.116 367.049 372.776C366.941 385.316 360.039 397.265 349.861 404.406C340.282 411.246 327.792 413.946 316.259 411.406C301.311 408.456 288.579 396.566 285.049 381.666C284.119 374.996 284.029 368.076 286.039 361.586C287.54 357.186 289.919 353.174 292.419 349.286Z"/>
<path d="M162.12 357.666C163.67 356.888 165.24 356.138 166.819 355.376C163.269 363.978 162.269 373.348 162.74 382.566C156.62 375.475 150.899 368.045 145.62 360.305C151.25 360.536 156.859 359.746 162.12 357.666Z"/>
<path d="M117.149 390.706C125.259 385.656 132.879 379.826 141.049 374.856C142.979 377.685 144.879 380.536 146.629 383.486C139.259 388.286 132.049 393.305 124.679 398.086C121.2 400.206 117.349 402.416 113.109 401.899C105.58 401.649 99.559 393.888 100.719 386.546C101.549 382.036 104.759 378.076 108.939 376.206C110.559 378.776 112.429 381.176 113.99 383.786C112.53 385.935 109.469 387.906 110.809 390.888C112.42 393.166 115.25 391.786 117.149 390.706Z"/>
<path d="M313.19 427.424C336.048 430.364 360.031 417.754 370.251 397.027C376.801 405.886 386.251 412.465 396.751 415.766C396.722 415.976 396.642 416.407 396.602 416.617C361.291 438.377 318.591 447.897 277.421 442.627C261.831 440.667 246.421 436.809 231.892 430.787C248.772 427.417 263.602 415.867 271.433 400.587C280.08 415.467 296.08 425.696 313.19 427.424Z"/>
<path fill-rule="evenodd" clip-rule="evenodd" d="M140.111 398.907C140 399.011 139.89 399.114 139.78 399.217C136.637 402.328 133.376 405.32 130.114 408.312C126.869 411.29 123.622 414.268 120.491 417.365C120.532 417.669 120.593 418.223 120.636 418.61L120.661 418.835C122.491 420.695 124.331 422.545 126.281 424.285C128.066 422.771 129.768 421.159 131.471 419.547C133.869 417.277 136.268 415.006 138.9 413.005C141.15 415.398 143.36 417.835 145.44 420.398C144.483 421.257 143.506 422.103 142.526 422.951C139.187 425.841 135.824 428.751 133.18 432.278C134.166 433.29 135.161 434.294 136.156 435.298C137.029 436.179 137.902 437.06 138.77 437.948C143.188 434.325 147.327 430.39 151.466 426.454C154.297 423.762 157.129 421.069 160.05 418.477C163.3 415.865 165.97 412.028 165.6 407.676C164.46 400.568 158.559 394.196 151.33 393.217C146.744 392.695 143.211 396.003 140.111 398.907ZM155.83 410.376C157.359 406.308 152.97 402.746 149.16 402.996C147.62 404.526 146.08 406.066 144.549 407.616C146.679 410.058 148.939 412.376 151.269 414.626C151.558 414.376 151.849 414.128 152.141 413.88C153.436 412.78 154.736 411.675 155.83 410.376Z"/>
<path d="M175.25 411.656C177.609 413.218 179.85 414.956 182.13 416.646C179.13 423.656 176.29 430.746 173.04 437.646C172.93 438.293 172.689 439.584 172.569 440.225C178.95 434.656 185.639 429.464 192.179 424.083C194.339 425.873 196.569 427.573 198.849 429.214C187.49 438.805 175.789 447.993 164.339 457.493C162.179 455.852 159.999 454.253 157.799 452.673C163.519 438.956 169.509 425.366 175.25 411.656Z"/>
<path d="M383.98 440.967C391.959 436.505 399.709 431.655 407.501 426.887C409.11 429.387 410.65 431.938 412.031 434.585C409.501 436.125 406.849 437.466 404.44 439.188C404.661 440.498 405.371 441.637 406.041 442.778C411.102 451.188 416.32 459.517 421.211 468.048C421.44 468.208 421.911 468.528 422.142 468.691C419.591 470.17 417.102 471.741 414.663 473.379C407.974 463.981 402.783 453.601 396.434 443.971C393.724 445.549 391.075 447.231 388.275 448.652C386.839 446.076 385.389 443.526 383.98 440.967Z"/>
<path fill-rule="evenodd" clip-rule="evenodd" d="M224.859 447.617C222.849 439.254 212.939 434.136 204.859 436.516C201.5 437.566 199.439 440.585 198.069 443.644C196.079 447.731 193.984 451.763 191.889 455.795C190.437 458.588 188.986 461.382 187.569 464.194C186.49 466.183 185.469 468.263 185.28 470.564C185.662 470.744 186.043 470.927 186.425 471.111C188.582 472.147 190.75 473.188 193.069 473.834C194.311 471.106 195.699 468.451 197.086 465.798C198.236 463.599 199.385 461.401 200.45 459.164C202.751 459.893 204.874 461.044 206.994 462.192C207.803 462.631 208.611 463.069 209.429 463.484C208.389 465.564 207.337 467.637 206.285 469.711C204.769 472.701 203.252 475.691 201.769 478.704C204.269 480.077 206.799 481.407 209.419 482.556C210.81 479.834 212.217 477.123 213.623 474.413C216.162 469.522 218.7 464.632 221.139 459.686C221.453 459.047 221.79 458.404 222.131 457.757C223.798 454.585 225.533 451.287 224.859 447.617ZM208.001 445.869C207.659 446 207.333 446.126 207.099 446.217C206.09 448.106 205.12 450.026 204.188 451.967C207.046 453.538 209.97 454.971 212.896 456.404L212.999 456.455C213.227 456.026 213.462 455.6 213.697 455.173C214.538 453.648 215.382 452.119 215.889 450.455C215.939 447.097 212.019 445.908 209.349 445.347C209.019 445.477 208.493 445.679 208.001 445.869Z"/>
<path d="M238.019 449.456C242.769 448.046 248.048 449.058 252.16 451.756C256.58 455.206 257.439 461.546 255.84 466.656C253.231 465.986 250.641 465.256 248.101 464.395C247.83 462.253 248.29 459.236 245.931 458.105C244.5 457.066 242.691 457.385 241.061 457.276C240.561 458.486 240.071 459.714 239.59 460.946C244.08 464.935 250.17 467.666 252.46 473.656C255 481.366 249.481 490.395 241.53 491.916C240.359 491.888 239.21 491.876 238.059 491.876C233.95 490.848 229.349 489.397 227.128 485.456C224.759 481.638 225.458 476.927 226.088 472.718C229.019 473.348 231.958 474.007 234.778 475.069C234.977 477.899 234.647 480.968 236.778 483.209C237.817 483.209 239.887 483.221 240.918 483.221C242.269 481.339 243.939 479.221 243.618 476.771C240.448 472.471 234.748 470.771 232.038 466.049C229.589 460.174 231.99 452.136 238.019 449.456Z"/>
<path d="M337.009 454.576C340.18 453.906 343.35 453.218 346.559 452.765C349.468 466.826 351.929 480.975 354.911 495.026C352.302 495.646 349.682 496.206 347.031 496.626C346.711 496.826 346.059 497.228 345.741 497.439C344.44 493.918 343.961 490.189 343.201 486.546C341.139 475.886 339.029 465.246 337.009 454.576Z"/>
<path fill-rule="evenodd" clip-rule="evenodd" d="M359.657 449.448C357.546 450.359 355.445 451.265 353.339 451.846C353.71 454.442 354.702 456.859 355.692 459.273C355.983 459.983 356.275 460.693 356.55 461.407C358.214 465.709 359.853 470.02 361.493 474.331C363.744 480.251 365.995 486.171 368.31 492.067C368.815 492.041 369.326 492.024 369.839 492.006L370.1 491.997C371.498 491.354 372.92 490.763 374.344 490.172C375.375 489.744 376.406 489.316 377.43 488.867C376.282 485.395 374.958 481.991 373.634 478.588C373.02 477.009 372.406 475.431 371.81 473.846C376.329 472.266 380.72 469.587 382.919 465.157C386.39 458.367 382.249 449.197 374.97 447.107C369.658 445.133 364.627 447.304 359.657 449.448ZM373.61 456.227C370.781 455.625 368.031 456.398 365.44 457.467C366.053 459.488 366.772 461.477 367.492 463.47C367.759 464.209 368.026 464.947 368.288 465.688C370.509 465.097 372.86 464.445 374.548 462.795C375.559 460.568 374.718 458.217 373.61 456.227Z"/>
<path d="M267.549 462.186C272.19 454.936 283.949 453.936 289.86 460.207C291.662 461.947 292.492 464.367 293.509 466.599C293.499 468.87 293.489 471.15 293.449 473.439C290.478 473.547 287.509 473.269 284.558 472.969C284.529 471.439 284.489 469.907 284.496 468.4C282.546 466.28 279.546 465.047 276.786 466.32C274.336 468.059 274.765 471.349 274.206 473.95C273.776 478.2 272.735 482.389 272.776 486.7C273.145 487.25 273.906 488.349 274.276 488.9C276.555 490.24 279.094 489.94 281.406 488.83C282.046 487.309 282.684 485.8 283.315 484.29C286.246 484.61 289.166 485.07 292.104 485.392C292.094 489.783 290.625 494.75 286.496 496.96C280.065 500.439 270.808 499.9 266.166 493.71C262.427 489.602 263.326 483.67 264.267 478.681C265.459 473.206 265.398 467.396 267.549 462.186Z"/>
<path fill-rule="evenodd" clip-rule="evenodd" d="M317.378 456.907C311.708 456.907 306.038 457.306 300.43 458.096C300.49 458.996 300.546 459.896 300.602 460.796C300.787 463.795 300.973 466.793 301.316 469.785C301.385 470.551 301.454 471.318 301.523 472.085C302.116 478.658 302.709 485.232 303.248 491.806C303.422 493.283 303.535 494.767 303.649 496.251C303.77 497.841 303.891 499.432 304.088 501.016C306.115 500.95 308.13 500.741 310.145 500.532C311.152 500.428 312.159 500.323 313.168 500.237C313.11 497.479 312.851 494.738 312.592 491.999C312.313 489.046 312.035 486.095 312.008 483.127C314.419 486.22 316.418 489.59 318.418 492.963C319.71 495.141 321.003 497.321 322.408 499.428C323.267 499.371 324.125 499.308 324.983 499.245C327.317 499.074 329.651 498.903 331.998 498.867C330.864 496.648 329.584 494.505 328.305 492.364C326.473 489.296 324.644 486.232 323.248 482.957C323.756 482.013 324.444 481.194 325.132 480.375C325.867 479.5 326.602 478.625 327.118 477.599C330.208 471.9 329.458 464.519 325.368 459.507C322.878 458.186 320.27 456.806 317.378 456.907ZM319.558 467.305C316.888 465.515 313.71 464.968 310.609 465.906C310.639 469.356 310.879 472.795 311.568 476.185L311.602 476.18C313.69 475.842 315.78 475.503 317.808 474.906C319.045 474.236 319.665 472.974 320.265 471.756C320.402 471.478 320.537 471.202 320.679 470.935C320.297 469.725 319.917 468.503 319.558 467.305Z"/>
</g>
</svg>
